<?xml version="1.0" standalone="no"?>
<!DOCTYPE svg PUBLIC "-//W3C//DTD SVG 20010904//EN"
 "http://www.w3.org/TR/2001/REC-SVG-20010904/DTD/svg10.dtd">
<svg version="1.0" xmlns="http://www.w3.org/2000/svg"
 width="160.000000pt" height="160.000000pt" viewBox="0 0 160.000000 160.000000"
 preserveAspectRatio="xMidYMid meet">
<metadata>
Created by potrace 1.14, written by Peter Selinger 2001-2017
</metadata>
<g transform="translate(0.000000,160.000000) scale(0.100000,-0.100000)"
fill="#000000" stroke="none">
<path d="M1267 1571 c-6 -24 10 -56 50 -99 43 -45 91 -145 107 -222 29 -144 4
-309 -54 -350 -31 -22 -47 -22 -69 -1 -11 10 -15 43 -16 135 -1 67 -5 127 -9
134 -4 7 -16 12 -26 12 -48 0 -88 -131 -84 -276 2 -75 9 -113 35 -186 39 -114
43 -148 22 -216 -27 -88 -95 -139 -255 -193 -80 -27 -108 -32 -198 -32 -58 -1
-118 2 -135 5 -16 4 -43 10 -59 13 -71 15 -256 107 -256 127 0 4 -5 8 -11 8
-18 0 -127 117 -163 174 -61 96 -99 201 -116 321 -1 6 -5 1 -9 -10 -11 -28 -5
-239 8 -300 19 -84 60 -182 111 -260 216 -330 638 -444 993 -269 140 69 252
182 334 336 39 73 58 123 89 233 2 6 6 24 9 40 3 17 7 35 10 42 18 51 27 340
12 406 -42 193 -129 336 -256 418 -53 34 -57 35 -64 10z"/>
<path d="M610 1459 c-227 -26 -402 -175 -460 -391 -41 -153 -9 -342 78 -450
81 -102 149 -154 244 -189 l53 -20 -35 28 c-76 61 -163 181 -175 242 -2 12 -6
25 -9 29 -10 16 -16 68 -17 133 -1 194 111 373 284 451 160 73 369 53 485 -46
14 -12 22 -15 22 -7 0 7 -26 38 -58 69 -112 110 -269 168 -412 151z"/>
<path d="M1216 1452 c-3 -5 -3 -17 -1 -28 2 -10 4 -22 4 -26 1 -3 14 -19 29
-35 54 -53 99 -137 118 -218 11 -45 21 -131 18 -149 -2 -12 0 -16 6 -10 7 8
23 86 23 119 0 96 -36 239 -69 277 -20 21 -103 78 -115 78 -4 0 -10 -4 -13 -8z"/>
<path d="M767 1248 c-13 -29 -68 -111 -121 -183 -54 -71 -108 -150 -121 -175
-102 -201 -42 -410 144 -493 69 -31 181 -32 249 -3 117 50 198 161 205 281 8
119 -38 218 -193 420 -38 50 -81 116 -95 148 -14 31 -30 57 -35 57 -5 0 -19
-24 -33 -52z m67 -44 c16 -31 34 -61 40 -68 17 -18 150 -198 169 -228 18 -29
16 -31 -19 -29 -14 1 -30 -10 -45 -29 -13 -17 -38 -48 -56 -68 l-32 -37 -78 1
c-61 1 -90 7 -134 27 -59 27 -138 49 -150 41 -19 -12 -16 17 8 62 29 55 72
116 151 216 29 38 64 90 78 118 14 27 28 50 32 50 4 0 20 -25 36 -56z m-259
-605 c23 -43 92 -106 147 -132 52 -24 61 -37 26 -37 -76 1 -175 88 -202 178
-11 33 11 27 29 -9z"/>
</g>
</svg>
